# xmcd
# Track frame offsets:
# 150
# 13505
# 30870
# 43512
# 55220
# 68487
# 82112
# 99660
# 113202
# 126070
#
# Disc length: 1874 seconds
# Revision: 0
# Processed by: cddbd v1.4PL0 Copyright (c) Steve Scherf et al.
# Submitted via: VisiTrax 2.9.3.171 - For more info visit www.synapsa.com
#
DISCID=7507500a
DTITLE=Percy Sledge - Percy Sledge
DYEAR=2002
DGENRE=Blues
TTITLE0=When A Man Loves A Women
TTITLE1=Try A Little Tenderness
TTITLE2=Behind Closed Doors
TTITLE3=The Dock Of The Bay
TTITLE4=I've Been Loving You Too Long
TTITLE5=My Special Prayer
TTITLE6=If Lovin' You Is Wrong
TTITLE7=Take Time To Know Her
TTITLE8=Cover Me
TTITLE9=Warm And Tender Love
EXTD=
EXTT0=
EXTT1=
EXTT2=
EXTT3=
EXTT4=
EXTT5=
EXTT6=
EXTT7=
EXTT8=
EXTT9=
PLAYORDER=
